# xmcd
#
# Track frame offsets:
#	150
#	15966
#	30363
#	45829
#	58378
#	71201
#	86053
#	100750
#	115061
#	129343
#	143235
#	155722
#	169284
#	181731
#	195206
#	208228
#
# Disc length: 2938 seconds
#
# Revision: 0
# Processed by: cddbd v1.5.1PL2 Copyright (c) Steve Scherf et al.
# Submitted via: dBpowerAMP V4.0
#
DISCID=d30b7810
DTITLE=Bing Crosby - Home On The Range
DYEAR=2004
DGENRE=Country
TTITLE0=Home on The Range
TTITLE1=Don't Fence me In
TTITLE2=New San Antonio Rose
TTITLE3=Deep In The Heart Of Texas
TTITLE4=Sioux City Sue
TTITLE5=San Fernando Valley
TTITLE6=The Last Round Up
TTITLE7=Tumbling Tumbleweeds
TTITLE8=Sierra Sue
TTITLE9=Pistol Packin' Mama
TTITLE10=Along The Navajo Trail
TTITLE11=Mule Train
TTITLE12=I'm An Old Cowhand (From The Rio Grand)
TTITLE13=The Singing Hills
TTITLE14=Ridin' Down The Canyon
TTITLE15=Take Me Back To My Boots and Saddle
EXTD=
EXTT0=
EXTT1=
EXTT2=
EXTT3=
EXTT4=
EXTT5=
EXTT6=
EXTT7=
EXTT8=
EXTT9=
EXTT10=
EXTT11=
EXTT12=
EXTT13=
EXTT14=
EXTT15=
PLAYORDER=
